<?xml version="1.0" ?>
<!-- Uploaded to: SVG Repo, www.svgrepo.com, Generator: SVG Repo Mixer Tools -->
<svg width="800px" height="800px" viewBox="0 0 512 512" version="1.1" xml:space="preserve" xmlns="http://www.w3.org/2000/svg" xmlns:xlink="http://www.w3.org/1999/xlink">
<style type="text/css">
	.st0{display:none;}
	.st1{fill:#FFE2D2;}
	.st2{fill:#FFDE83;}
	.st3{fill:#F57070;}
	.st4{fill:#DBDBEF;}
	.st5{fill:#BCE2FF;}
	.st6{fill:#48446D;}
	.st7{fill:#6E78FF;}
	.st8{fill:#FFBE83;}
	.st9{fill:#F5949E;}
	.st10{fill:#D0FF67;}
	.st11{fill:#C69C6D;}
	.st12{fill:#C5BDD3;}
	.st13{fill:#FFE2B8;}
	.st14{fill:#F54670;}
</style>
<g class="st0" id="Layer_1"/>
<g id="Layer_2">
<g>
<path class="st3" d="M359.74,185.66c-2.66-2.8-2.54-7.23,0.26-9.89c0.14-0.12,0.27-0.25,0.41-0.36c0.14-0.11,0.27-0.21,0.41-0.3    c0.14-0.1,0.3-0.17,0.44-0.26c-0.02-0.03-0.05-0.05-0.08-0.08c-3.51-3.74-8.91-8.77-14.8-11.7c-0.16,0.1-0.32,0.21-0.48,0.31    c-0.17,0.11-0.34,0.2-0.52,0.31c-1.7,1.06-3.43,2.05-5.17,2.97c-0.08,0.04-0.16,0.07-0.24,0.11c-0.01,0.01-0.01,0.01-0.02,0.01    l-0.01,0.01c-0.52,0.27-1.05,0.51-1.57,0.77c-0.54,0.26-1.08,0.54-1.62,0.79c-0.59,0.27-1.2,0.52-1.79,0.78    c-0.49,0.21-0.98,0.43-1.47,0.63c-0.62,0.26-1.26,0.49-1.89,0.72c-0.47,0.18-0.94,0.38-1.42,0.55c-0.64,0.22-1.28,0.42-1.91,0.63    c-0.49,0.16-0.97,0.33-1.46,0.48c-0.68,0.21-1.37,0.39-2.06,0.57c-0.45,0.13-0.9,0.27-1.35,0.39c-0.7,0.17-1.4,0.32-2.1,0.48    c-0.46,0.11-0.91,0.22-1.37,0.32c-0.64,0.14-1.3,0.24-1.95,0.36c-0.52,0.1-1.03,0.21-1.55,0.29c-0.63,0.1-1.26,0.18-1.89,0.27    c-0.55,0.07-1.1,0.16-1.65,0.23c-0.65,0.07-1.3,0.12-1.94,0.18c-0.55,0.05-1.09,0.12-1.64,0.16c-0.67,0.05-1.34,0.07-2.01,0.1    c-0.54,0.03-1.06,0.07-1.6,0.09c-0.7,0.02-1.41,0.01-2.11,0.01c-0.51,0.01-1.02,0.02-1.53,0.02c-0.86-0.01-1.73-0.05-2.6-0.09    c-0.36-0.01-0.71-0.02-1.07-0.04c-1-0.05-2-0.13-3.01-0.22c-0.22-0.02-0.45-0.03-0.68-0.06c-3.7-0.35-7.43-0.95-11.18-1.77    c-8.72-1.93-17.52-2.87-26.22-2.82c-8.74-0.06-17.6,0.89-26.32,2.82c-1.04,0.23-2.09,0.43-3.13,0.63    c-0.29,0.05-0.58,0.1-0.87,0.15c-0.85,0.15-1.7,0.29-2.54,0.42c-0.22,0.03-0.44,0.07-0.65,0.1c-1.02,0.14-2.04,0.27-3.05,0.37    c-0.28,0.03-0.55,0.06-0.82,0.08c-0.8,0.08-1.59,0.15-2.38,0.21c-0.29,0.02-0.58,0.04-0.87,0.06c-1.01,0.06-2.01,0.11-3.01,0.13    c-0.19,0.01-0.37,0.01-0.56,0.01c-0.58,0.01-1.16,0.02-1.74,0.02c-0.26,0-0.51,0-0.77-0.01c-0.31,0-0.63,0-0.94-0.01    c-0.85-0.02-1.7-0.05-2.54-0.09c-0.17-0.01-0.34-0.01-0.51-0.02c-0.99-0.06-1.97-0.13-2.95-0.22c-0.29-0.03-0.57-0.06-0.86-0.09    c-0.76-0.08-1.52-0.17-2.27-0.27c-0.27-0.03-0.54-0.07-0.81-0.1c-0.97-0.14-1.94-0.29-2.91-0.47c-0.19-0.03-0.38-0.07-0.56-0.11    c-0.81-0.15-1.6-0.31-2.4-0.48c-0.28-0.07-0.57-0.13-0.85-0.19c-0.86-0.2-1.71-0.41-2.55-0.63c-0.12-0.03-0.24-0.06-0.35-0.09    c-0.95-0.26-1.89-0.54-2.83-0.83c-0.26-0.08-0.52-0.17-0.78-0.25c-0.74-0.24-1.47-0.49-2.2-0.75c-0.24-0.08-0.47-0.16-0.71-0.25    c-0.92-0.34-1.84-0.69-2.75-1.06c-0.17-0.08-0.35-0.16-0.53-0.23c-0.75-0.32-1.5-0.65-2.25-0.99c-0.14-0.06-0.28-0.12-0.41-0.18    c-34.14,18.47-50.75,52.12-50.75,102.74c0,4.56,0.15,9.12,0.43,13.65c0.11-0.13,0.23-0.26,0.33-0.38c0.1-0.12,0.2-0.23,0.29-0.34    c0.33-0.4,0.65-0.79,0.93-1.16c1.33-1.76,2.59-3.6,3.93-5.54c2.59-3.78,5.27-7.69,8.66-11.28c6.84-7.23,15.05-11.04,23.02-10.74    c10.54,0.38,20.37,7.85,26.97,20.51c1.47,2.82,2.73,5.68,3.96,8.45c2.48,5.6,4.83,10.89,8.37,14.94    c4.01,4.59,11.43,7.35,15.34,4.19c2.5-2.01,3.71-6.22,5-10.68c0.19-0.67,0.38-1.33,0.58-1.99c3.08-10.32,8.32-16.55,15.57-18.53    c1.85-0.51,3.72-0.69,5.57-0.58c8.04,0.5,15.87,6.67,21.34,17.16l0.53,1.01c3.11,5.98,6.34,12.17,10.78,13    c0.96,0.18,1.95,0.08,2.95-0.23c1.24-0.38,2.48-1.09,3.64-2c1.17-0.91,2.27-2.03,3.22-3.22c0.05-0.06,0.09-0.12,0.13-0.17    c0.33-0.43,0.65-0.86,0.94-1.29c1.57-2.33,2.91-4.95,4.32-7.72c1.95-3.82,3.97-7.78,6.85-11.48c5.85-7.5,16.83-13.62,27.12-9.34    c6.95,2.89,11.76,9.76,13.9,19.89c0.31,1.47,0.57,2.93,0.82,4.33c0.74,4.2,1.44,8.16,3.27,11c0.92,1.44,2.73,2.66,4.29,2.9    c0.3,0.04,0.85,0.09,1.1-0.13c0.82-0.68,1.45-3.01,2.01-5.07c1.03-3.8,2.31-8.54,6.41-12.04c7.42-6.31,18.25-3.66,24.43,2.55    c0.48,0.47,0.92,0.96,1.35,1.46c0.07,0.07,0.12,0.15,0.19,0.23c0.35,0.42,0.7,0.85,1.02,1.28c0.01,0.01,0.01,0.01,0.02,0.02    c0.77-7.49,1.16-15.06,1.16-22.66C387.62,233.9,378.24,205.18,359.74,185.66z M171.39,227.23c-0.33,0.32-0.69,0.61-1.07,0.87    c-0.38,0.25-0.78,0.47-1.21,0.64c-0.42,0.18-0.86,0.31-1.31,0.4s-0.91,0.14-1.36,0.14c-0.46,0-0.92-0.05-1.37-0.14    s-0.89-0.22-1.31-0.4c-0.42-0.17-0.83-0.39-1.21-0.64c-0.38-0.26-0.74-0.55-1.06-0.87c-0.33-0.33-0.62-0.68-0.87-1.07    c-0.26-0.38-0.47-0.78-0.65-1.2c-0.17-0.43-0.31-0.87-0.4-1.31c-0.09-0.46-0.13-0.92-0.13-1.37c0-0.46,0.04-0.92,0.13-1.37    c0.09-0.45,0.23-0.89,0.4-1.31c0.18-0.42,0.39-0.83,0.65-1.21c0.25-0.38,0.54-0.74,0.87-1.06c0.32-0.33,0.68-0.62,1.06-0.87    c0.38-0.25,0.79-0.47,1.21-0.65c0.42-0.17,0.86-0.31,1.31-0.4c0.9-0.18,1.83-0.18,2.73,0c0.45,0.09,0.89,0.23,1.31,0.4    c0.43,0.18,0.83,0.4,1.21,0.65c0.38,0.25,0.74,0.54,1.07,0.87c1.3,1.3,2.05,3.11,2.05,4.95    C173.44,224.12,172.69,225.92,171.39,227.23z M182.45,196.42c-0.32,0.32-0.68,0.61-1.07,0.87c-0.37,0.25-0.78,0.47-1.2,0.64    c-0.43,0.18-0.87,0.31-1.31,0.4c-0.45,0.09-0.91,0.14-1.37,0.14s-0.92-0.05-1.37-0.14c-0.44-0.09-0.89-0.22-1.31-0.4    c-0.42-0.17-0.83-0.39-1.21-0.64c-0.38-0.26-0.74-0.55-1.06-0.87c-1.3-1.31-2.05-3.11-2.05-4.95c0-1.84,0.75-3.65,2.05-4.95    c0.32-0.32,0.68-0.62,1.06-0.87c0.38-0.25,0.79-0.47,1.21-0.64c0.42-0.18,0.86-0.31,1.31-0.4c0.9-0.19,1.83-0.19,2.74,0    c0.44,0.09,0.88,0.22,1.31,0.4c0.42,0.17,0.83,0.39,1.2,0.64c0.39,0.25,0.75,0.55,1.07,0.87c1.3,1.3,2.05,3.11,2.05,4.95    C184.5,193.31,183.75,195.11,182.45,196.42z M215.34,265.86c-0.09,0.44-0.22,0.88-0.4,1.31c-0.17,0.42-0.39,0.82-0.64,1.2    c-0.26,0.39-0.55,0.75-0.87,1.07c-0.33,0.32-0.68,0.61-1.07,0.87c-0.38,0.25-0.78,0.47-1.21,0.64c-0.42,0.18-0.86,0.31-1.3,0.4    c-0.46,0.09-0.92,0.14-1.37,0.14c-0.46,0-0.92-0.05-1.37-0.14c-0.45-0.09-0.89-0.22-1.31-0.4c-0.42-0.17-0.83-0.39-1.21-0.64    c-0.38-0.26-0.74-0.55-1.06-0.87c-0.33-0.32-0.62-0.68-0.87-1.07c-0.26-0.38-0.47-0.78-0.65-1.2c-0.17-0.43-0.31-0.87-0.4-1.31    c-0.09-0.46-0.13-0.92-0.13-1.37c0-0.46,0.04-0.92,0.13-1.37c0.09-0.45,0.23-0.89,0.4-1.31c0.18-0.42,0.39-0.83,0.65-1.21    c0.25-0.38,0.54-0.74,0.87-1.06c0.32-0.32,0.68-0.62,1.06-0.87c0.38-0.25,0.79-0.47,1.21-0.65c0.42-0.17,0.86-0.3,1.31-0.39    c0.9-0.19,1.83-0.19,2.74,0c0.44,0.09,0.88,0.22,1.3,0.39c0.43,0.18,0.83,0.4,1.21,0.65c0.39,0.25,0.75,0.55,1.07,0.87    c0.32,0.32,0.61,0.68,0.87,1.06c0.25,0.38,0.47,0.79,0.64,1.21c0.18,0.42,0.31,0.86,0.4,1.31c0.09,0.45,0.14,0.91,0.14,1.37    C215.48,264.94,215.43,265.4,215.34,265.86z M216.15,228.93c-1.3,1.3-3.11,2.05-4.95,2.05c-0.45,0-0.91-0.05-1.37-0.14    c-0.44-0.09-0.88-0.22-1.31-0.4c-0.42-0.17-0.83-0.39-1.21-0.64c-0.38-0.26-0.74-0.55-1.06-0.87c-0.32-0.32-0.62-0.68-0.87-1.06    s-0.47-0.79-0.64-1.21c-0.18-0.43-0.31-0.87-0.4-1.31c-0.09-0.45-0.14-0.91-0.14-1.37s0.05-0.92,0.14-1.37    c0.09-0.45,0.22-0.89,0.4-1.31c0.17-0.42,0.39-0.83,0.64-1.21s0.55-0.74,0.87-1.06c0.32-0.32,0.68-0.62,1.06-0.87    c0.38-0.25,0.79-0.47,1.21-0.64c0.43-0.18,0.87-0.31,1.31-0.4c2.28-0.46,4.7,0.28,6.32,1.91c1.3,1.3,2.05,3.11,2.05,4.95    C218.2,225.82,217.45,227.63,216.15,228.93z M227.76,195.22c-0.09,0.45-0.22,0.89-0.39,1.31c-0.18,0.42-0.4,0.83-0.65,1.21    s-0.55,0.74-0.87,1.06c-0.32,0.32-0.68,0.62-1.06,0.87c-0.38,0.25-0.79,0.47-1.21,0.65c-0.42,0.17-0.86,0.31-1.31,0.39    c-0.45,0.1-0.91,0.14-1.37,0.14c-1.84,0-3.64-0.75-4.95-2.05c-0.32-0.32-0.61-0.68-0.87-1.06c-0.25-0.38-0.47-0.79-0.64-1.21    c-0.18-0.42-0.31-0.86-0.4-1.31c-0.09-0.45-0.14-0.91-0.14-1.37c0-0.45,0.05-0.91,0.14-1.37c0.09-0.44,0.22-0.88,0.4-1.31    c0.17-0.42,0.39-0.82,0.64-1.2c0.26-0.39,0.55-0.75,0.87-1.07c1.31-1.3,3.11-2.05,4.95-2.05c1.84,0,3.65,0.75,4.95,2.05    c0.33,0.32,0.62,0.68,0.87,1.07c0.25,0.38,0.47,0.78,0.65,1.2c0.17,0.43,0.3,0.87,0.39,1.31c0.1,0.46,0.14,0.92,0.14,1.37    C227.9,194.31,227.86,194.77,227.76,195.22z M261.87,250.12c-0.32,0.32-0.68,0.62-1.06,0.87c-0.38,0.25-0.79,0.47-1.21,0.64    c-0.42,0.18-0.86,0.31-1.31,0.4c-0.45,0.09-0.91,0.14-1.36,0.14c-0.46,0-0.92-0.05-1.37-0.14c-0.45-0.09-0.89-0.22-1.31-0.4    c-0.43-0.17-0.83-0.39-1.21-0.64c-0.39-0.25-0.74-0.55-1.06-0.87c-1.31-1.3-2.06-3.11-2.06-4.95c0-1.84,0.75-3.65,2.06-4.95    c0.32-0.32,0.67-0.61,1.06-0.87c0.38-0.25,0.78-0.47,1.21-0.64c0.42-0.18,0.86-0.31,1.31-0.4c0.9-0.18,1.83-0.18,2.73,0    c0.45,0.09,0.89,0.22,1.31,0.4c0.42,0.17,0.83,0.39,1.21,0.64c0.38,0.26,0.74,0.55,1.06,0.87c0.33,0.32,0.62,0.68,0.87,1.06    c0.26,0.38,0.47,0.79,0.65,1.21c0.17,0.43,0.31,0.87,0.4,1.31c0.09,0.45,0.13,0.91,0.13,1.37    C263.92,247.01,263.18,248.82,261.87,250.12z M283.26,217.86c-0.09,0.44-0.23,0.88-0.4,1.31c-0.18,0.42-0.4,0.83-0.65,1.21    s-0.55,0.74-0.87,1.06c-0.32,0.32-0.68,0.62-1.06,0.87c-0.38,0.25-0.79,0.47-1.21,0.64c-0.42,0.18-0.86,0.31-1.31,0.4    s-0.91,0.14-1.37,0.14c-0.45,0-0.91-0.05-1.37-0.14c-0.44-0.09-0.88-0.22-1.3-0.4c-0.43-0.17-0.83-0.39-1.21-0.64    c-0.39-0.25-0.75-0.55-1.07-0.87c-0.32-0.32-0.61-0.68-0.87-1.06c-0.25-0.38-0.47-0.79-0.64-1.21c-0.18-0.43-0.31-0.87-0.4-1.31    c-0.09-0.45-0.14-0.91-0.14-1.37s0.05-0.92,0.14-1.37c0.09-0.44,0.22-0.88,0.4-1.31c0.17-0.42,0.39-0.83,0.64-1.21    c0.26-0.38,0.55-0.74,0.87-1.06c0.32-0.32,0.68-0.61,1.07-0.87c0.38-0.25,0.78-0.47,1.21-0.64c0.42-0.18,0.86-0.31,1.3-0.4    c0.91-0.18,1.84-0.18,2.74,0c0.45,0.09,0.89,0.22,1.31,0.4c0.42,0.17,0.83,0.39,1.21,0.64c0.38,0.26,0.74,0.55,1.06,0.87    c0.33,0.32,0.62,0.68,0.87,1.06s0.47,0.79,0.65,1.21c0.17,0.43,0.31,0.87,0.4,1.31c0.09,0.45,0.13,0.91,0.13,1.37    S283.35,217.41,283.26,217.86z M319.3,246.97c-0.32,0.32-0.68,0.62-1.06,0.87s-0.79,0.47-1.21,0.64c-0.42,0.18-0.86,0.31-1.31,0.4    s-0.91,0.14-1.37,0.14s-0.92-0.05-1.37-0.14c-0.44-0.09-0.88-0.22-1.31-0.4c-0.42-0.17-0.83-0.39-1.21-0.64    c-0.38-0.25-0.74-0.55-1.06-0.87c-1.3-1.3-2.05-3.11-2.05-4.95c0-1.84,0.75-3.64,2.05-4.95c0.32-0.32,0.68-0.61,1.06-0.87    c0.38-0.25,0.79-0.47,1.21-0.64c0.43-0.18,0.87-0.31,1.31-0.4c0.91-0.18,1.84-0.18,2.74,0c0.44,0.09,0.89,0.22,1.31,0.4    c0.42,0.17,0.83,0.39,1.21,0.64c0.38,0.26,0.74,0.55,1.06,0.87c1.3,1.31,2.05,3.11,2.05,4.95    C321.35,243.86,320.6,245.67,319.3,246.97z M325.47,192.84c-0.09,0.44-0.23,0.88-0.4,1.31c-0.18,0.42-0.39,0.82-0.64,1.2    c-0.26,0.39-0.55,0.75-0.87,1.07c-0.33,0.32-0.69,0.61-1.07,0.87c-0.38,0.25-0.79,0.47-1.21,0.64c-0.42,0.18-0.86,0.31-1.31,0.4    s-0.91,0.14-1.36,0.14c-1.85,0-3.65-0.75-4.95-2.05c-0.33-0.32-0.62-0.68-0.87-1.07c-0.26-0.38-0.47-0.78-0.65-1.2    c-0.17-0.43-0.31-0.87-0.4-1.31c-0.09-0.46-0.14-0.92-0.14-1.37c0-1.84,0.75-3.65,2.06-4.95c0.32-0.32,0.68-0.62,1.06-0.87    c0.38-0.25,0.79-0.47,1.21-0.65c0.42-0.17,0.86-0.31,1.31-0.4c0.9-0.18,1.83-0.18,2.73,0c0.45,0.09,0.89,0.23,1.31,0.4    c0.42,0.18,0.83,0.4,1.21,0.65s0.74,0.55,1.07,0.87c1.3,1.3,2.05,3.11,2.05,4.95C325.61,191.92,325.56,192.38,325.47,192.84z     M354.7,217.35c-0.32,0.33-0.68,0.62-1.06,0.87c-0.38,0.26-0.78,0.47-1.21,0.65c-0.42,0.17-0.86,0.31-1.31,0.4    c-0.45,0.09-0.91,0.13-1.37,0.13c-1.84,0-3.64-0.74-4.94-2.05c-1.31-1.3-2.05-3.1-2.05-4.95c0-0.45,0.04-0.91,0.13-1.36    c0.09-0.45,0.23-0.89,0.4-1.31c0.18-0.43,0.39-0.83,0.64-1.21c0.26-0.39,0.55-0.74,0.88-1.07c1.62-1.62,4.04-2.37,6.31-1.91    c0.45,0.09,0.89,0.23,1.31,0.4c0.42,0.18,0.83,0.39,1.21,0.64c0.38,0.26,0.74,0.55,1.06,0.87c1.31,1.31,2.05,3.11,2.05,4.95    C356.75,214.25,356.01,216.05,354.7,217.35z M371.68,246.54c-0.09,0.45-0.22,0.89-0.4,1.31c-0.17,0.42-0.39,0.83-0.64,1.21    c-0.26,0.38-0.55,0.74-0.87,1.06s-0.68,0.62-1.07,0.87c-0.38,0.25-0.78,0.47-1.2,0.64c-0.43,0.18-0.87,0.31-1.31,0.4    c-0.46,0.09-0.92,0.14-1.37,0.14c-0.46,0-0.92-0.05-1.37-0.14c-0.45-0.09-0.89-0.22-1.31-0.4c-0.42-0.17-0.83-0.39-1.21-0.64    c-0.38-0.25-0.74-0.55-1.06-0.87c-0.33-0.32-0.62-0.68-0.87-1.06c-0.26-0.38-0.47-0.79-0.65-1.21c-0.17-0.42-0.31-0.86-0.4-1.31    c-0.09-0.45-0.13-0.91-0.13-1.37c0-1.84,0.74-3.65,2.05-4.95c0.32-0.32,0.68-0.61,1.06-0.87c0.38-0.25,0.79-0.47,1.21-0.64    c0.42-0.18,0.86-0.31,1.31-0.4c0.9-0.18,1.83-0.18,2.74,0c0.44,0.09,0.88,0.22,1.31,0.4c0.42,0.17,0.83,0.39,1.2,0.64    c0.39,0.26,0.75,0.55,1.07,0.87c1.3,1.3,2.05,3.11,2.05,4.95C371.82,245.63,371.77,246.09,371.68,246.54z"/>
<path class="st10" d="M365.79,122.42c-0.5,1.84-2.78,7.06-13.1,17.55c-2.91,2.95-5.94,5.62-9.08,7.99    c-3.13,2.36-6.37,4.43-9.68,6.18c-0.07,0.03-0.14,0.07-0.22,0.11c-14.22,7.42-30.09,9.28-47.18,5.5    c-9.73-2.14-19.59-3.18-29.23-3.14c-2.43-0.01-4.87,0.04-7.32,0.17c-7.34,0.37-14.71,1.36-22.02,2.97    c-17.08,3.78-32.95,1.93-47.17-5.5c-0.08-0.04-0.15-0.08-0.22-0.11c-6.63-3.49-12.94-8.26-18.76-14.17    c-10.32-10.49-12.6-15.71-13.1-17.55c6.33-1.85,31.8,4.91,43.59,15.87c2.22,2.07,5.53,2.46,8.18,0.98s4.05-4.51,3.45-7.49    c-3.87-19.32-5.55-39.33-4.18-47.01c0.72,0.62,1.61,1.49,2.71,2.7c20.09,22.19,23.89,27.12,24.52,27.99    c1.44,2.58,4.38,4.02,7.37,3.47c3.39-0.62,5.82-3.6,5.74-7.04c-0.52-23.96,4.4-50.61,13.53-54.24c1.53-0.21,5.8-0.2,7.32,0.03    c9.1,3.9,13.99,30.47,13.47,54.22c-0.08,3.43,2.35,6.42,5.74,7.04c2.99,0.55,5.93-0.9,7.37-3.48c0.63-0.87,4.43-5.8,24.52-27.99    c1.1-1.21,1.99-2.08,2.71-2.7c1.37,7.68-0.31,27.69-4.18,47.01c-0.6,2.98,0.8,6.01,3.45,7.49s5.96,1.08,8.18-0.98    C333.99,127.32,359.46,120.58,365.79,122.42z"/>
<path class="st11" d="M392.43,345.28c-8.55,21.85-18.03,39.31-28.99,53.39c-28.04,36-65.79,55.83-106.28,55.83    c-22.03,0-43.1-5.74-62.64-17.07c-3.34-1.93-7.63-0.8-9.57,2.55c-0.18,0.31-0.32,0.62-0.44,0.94c-0.06,0.16-0.13,0.32-0.18,0.48    c-0.05,0.17-0.08,0.35-0.12,0.52c-0.05-0.04-0.1-0.07-0.16-0.1c-2.82-1.86-6.11-4.42-9.75-7.61l-0.06-0.06    c0.13-0.1,0.27-0.21,0.39-0.32c0.12-0.11,0.24-0.23,0.35-0.35c1.21-1.26,1.96-2.96,1.96-4.84c0-3.87-3.13-7-7-7h-0.01    c-2.02,0-3.84,0.87-5.12,2.25c-0.11,0.12-0.23,0.24-0.33,0.37c-0.11,0.13-0.19,0.28-0.28,0.42c-0.03-0.02-0.05-0.04-0.07-0.07    c-2.93-2.92-5.96-6.09-9.03-9.43c-0.01-0.01-0.01-0.02-0.02-0.02c0.09-0.08,0.19-0.14,0.28-0.22c0.04-0.03,0.07-0.06,0.11-0.1    c0.13-0.11,0.24-0.23,0.36-0.35c2.49-2.56,2.66-6.65,0.28-9.42c-1.77-2.07-3.53-4.22-5.23-6.4    c-17.71-22.75-27.87-42.55-31.96-62.33c-3-14.41,2.92-24.03,8.41-30.8c2.15-2.66,4.42-5.07,6.61-7.39    c2.26-2.4,4.39-4.66,6.09-6.91c1.53-2.02,2.94-4.08,4.3-6.07c2.39-3.49,4.66-6.78,7.29-9.57c3.97-4.19,8.47-6.5,12.34-6.37    c7.84,0.28,13.52,10.02,15.06,12.99c1.26,2.42,2.39,4.96,3.58,7.65c2.8,6.31,5.69,12.84,10.64,18.49    c8.34,9.54,23.97,14.5,34.66,5.87c5.93-4.79,8-11.95,9.66-17.7c0.18-0.63,0.36-1.25,0.54-1.87c1.54-5.14,3.67-8.43,5.84-9.03    c3.36-0.91,7.98,4.12,10.82,9.57l0.52,0.99c4.01,7.69,9.49,18.22,20.65,20.3c10.78,1.98,20.01-5.36,25.05-12.87    c2.04-3.02,3.63-6.15,5.17-9.17c1.73-3.39,3.37-6.59,5.43-9.24c2.74-3.51,7.49-6.35,10.7-5.02c2.43,1.02,4.46,4.61,5.58,9.86    c0.26,1.24,0.48,2.53,0.72,3.88c0.91,5.12,1.94,10.93,5.28,16.13c3.08,4.8,8.42,8.31,13.94,9.16c4.55,0.71,8.88-0.43,12.19-3.19    c4.22-3.51,5.52-8.32,6.56-12.18c0.56-2.05,1.19-4.37,1.98-5.05c0.75-0.63,3.6-0.06,5.44,1.78c2.08,2.09,3.59,5.21,5.2,8.51    c0.63,1.32,1.29,2.68,2.03,4.07c1.14,2.1,2.4,4.03,3.73,5.69c0.01,0.01,0.01,0.01,0.02,0.02v0.01c0.01,0,0.01,0,0.01,0.01    c1.17,1.47,2.41,2.78,3.66,3.86C389.84,323.87,396.87,333.88,392.43,345.28z"/>
<path class="st6" d="M176.94,428.64c0,1.88-0.75,3.58-1.96,4.84c-0.11,0.12-0.23,0.24-0.35,0.35c-0.12,0.11-0.26,0.22-0.39,0.32    c-1.18,0.94-2.67,1.49-4.3,1.49c-3.86,0-7-3.14-7-7c0-1.49,0.48-2.83,1.26-3.96c0.09-0.14,0.17-0.29,0.28-0.42    c0.1-0.13,0.22-0.25,0.33-0.37c1.28-1.38,3.1-2.25,5.12-2.25h0.01C173.81,421.64,176.94,424.77,176.94,428.64z"/>
<path class="st6" d="M397.94,312.3c2.43-13.47,3.68-27.34,3.68-41.27c0-40.83-10.68-72.79-31.72-95    c-2.29-2.41-5.89-2.81-8.64-1.18c-0.14,0.09-0.3,0.16-0.44,0.26c-0.14,0.09-0.27,0.19-0.41,0.3c-0.14,0.11-0.27,0.24-0.41,0.36    c-2.8,2.66-2.92,7.09-0.26,9.89c18.5,19.52,27.88,48.24,27.88,85.37c0,7.6-0.39,15.17-1.16,22.66c-0.01-0.01-0.01-0.01-0.02-0.02    c-0.32-0.43-0.67-0.86-1.02-1.28c-0.07-0.08-0.12-0.16-0.19-0.23c-0.43-0.5-0.87-0.99-1.35-1.46c-6.18-6.21-17.01-8.86-24.43-2.55    c-4.1,3.5-5.38,8.24-6.41,12.04c-0.56,2.06-1.19,4.39-2.01,5.07c-0.25,0.22-0.8,0.17-1.1,0.13c-1.56-0.24-3.37-1.46-4.29-2.9    c-1.83-2.84-2.53-6.8-3.27-11c-0.25-1.4-0.51-2.86-0.82-4.33c-2.14-10.13-6.95-17-13.9-19.89c-10.29-4.28-21.27,1.84-27.12,9.34    c-2.88,3.7-4.9,7.66-6.85,11.48c-1.41,2.77-2.75,5.39-4.32,7.72c-0.29,0.43-0.61,0.86-0.94,1.29c-0.04,0.05-0.08,0.11-0.13,0.17    c-0.95,1.19-2.05,2.31-3.22,3.22c-1.16,0.91-2.4,1.62-3.64,2c-1,0.31-1.99,0.41-2.95,0.23c-4.44-0.83-7.67-7.02-10.78-13    l-0.53-1.01c-5.47-10.49-13.3-16.66-21.34-17.16c-1.85-0.11-3.72,0.07-5.57,0.58c-7.25,1.98-12.49,8.21-15.57,18.53    c-0.2,0.66-0.39,1.32-0.58,1.99c-1.29,4.46-2.5,8.67-5,10.68c-3.91,3.16-11.33,0.4-15.34-4.19c-3.54-4.05-5.89-9.34-8.37-14.94    c-1.23-2.77-2.49-5.63-3.96-8.45c-6.6-12.66-16.43-20.13-26.97-20.51c-7.97-0.3-16.18,3.51-23.02,10.74    c-3.39,3.59-6.07,7.5-8.66,11.28c-1.34,1.94-2.6,3.78-3.93,5.54c-0.28,0.37-0.6,0.76-0.93,1.16c-0.09,0.11-0.19,0.22-0.29,0.34    c-0.1,0.12-0.22,0.25-0.33,0.38c-0.28-4.53-0.43-9.09-0.43-13.65c0-50.62,16.61-84.27,50.75-102.74c0.13,0.06,0.27,0.12,0.41,0.18    c0.75,0.34,1.5,0.67,2.25,0.99c0.18,0.07,0.36,0.15,0.53,0.23c0.91,0.37,1.83,0.72,2.75,1.06c0.24,0.09,0.47,0.17,0.71,0.25    c0.73,0.26,1.46,0.51,2.2,0.75c0.26,0.08,0.52,0.17,0.78,0.25c0.94,0.29,1.88,0.57,2.83,0.83c0.11,0.03,0.23,0.06,0.35,0.09    c0.84,0.22,1.69,0.43,2.55,0.63c0.28,0.06,0.57,0.12,0.85,0.19c0.8,0.17,1.59,0.33,2.4,0.48c0.18,0.04,0.37,0.08,0.56,0.11    c0.97,0.18,1.94,0.33,2.91,0.47c0.27,0.03,0.54,0.07,0.81,0.1c0.75,0.1,1.51,0.19,2.27,0.27c0.29,0.03,0.57,0.06,0.86,0.09    c0.98,0.09,1.96,0.16,2.95,0.22c0.17,0.01,0.34,0.01,0.51,0.02c0.84,0.04,1.69,0.07,2.54,0.09c0.31,0.01,0.63,0.01,0.94,0.01    c0.26,0.01,0.51,0.01,0.77,0.01c0.58,0,1.16-0.01,1.74-0.02c0.19,0,0.37,0,0.56-0.01c1-0.02,2-0.07,3.01-0.13    c0.29-0.02,0.58-0.04,0.87-0.06c0.79-0.06,1.58-0.13,2.38-0.21c0.27-0.02,0.54-0.05,0.82-0.08c1.01-0.1,2.03-0.23,3.05-0.37    c0.21-0.03,0.43-0.07,0.65-0.1c0.84-0.13,1.69-0.27,2.54-0.42c0.29-0.05,0.58-0.1,0.87-0.15c1.04-0.2,2.09-0.4,3.13-0.63    c8.72-1.93,17.58-2.88,26.32-2.82c8.7-0.05,17.5,0.89,26.22,2.82c3.75,0.82,7.48,1.42,11.18,1.77c0.23,0.03,0.46,0.04,0.68,0.06    c1.01,0.09,2.01,0.17,3.01,0.22c0.36,0.02,0.71,0.03,1.07,0.04c0.87,0.04,1.74,0.08,2.6,0.09c0.51,0,1.02-0.01,1.53-0.02    c0.7,0,1.41,0.01,2.11-0.01c0.54-0.02,1.06-0.06,1.6-0.09c0.67-0.03,1.34-0.05,2.01-0.1c0.55-0.04,1.09-0.11,1.64-0.16    c0.64-0.06,1.29-0.11,1.94-0.18c0.55-0.07,1.1-0.16,1.65-0.23c0.63-0.09,1.26-0.17,1.89-0.27c0.52-0.08,1.03-0.19,1.55-0.29    c0.65-0.12,1.31-0.22,1.95-0.36c0.46-0.1,0.91-0.21,1.37-0.32c0.7-0.16,1.4-0.31,2.1-0.48c0.45-0.12,0.9-0.26,1.35-0.39    c0.69-0.18,1.38-0.36,2.06-0.57c0.49-0.15,0.97-0.32,1.46-0.48c0.63-0.21,1.27-0.41,1.91-0.63c0.48-0.17,0.95-0.37,1.42-0.55    c0.63-0.23,1.27-0.46,1.89-0.72c0.49-0.2,0.98-0.42,1.47-0.63c0.59-0.26,1.2-0.51,1.79-0.78c0.54-0.25,1.08-0.53,1.62-0.79    c0.52-0.26,1.05-0.5,1.57-0.77l0.01-0.01c0.01,0,0.01,0,0.02-0.01c0.08-0.04,0.16-0.07,0.24-0.11c1.74-0.92,3.47-1.91,5.17-2.97    c0.18-0.11,0.35-0.2,0.52-0.31c0.16-0.1,0.32-0.21,0.48-0.31c5.73-3.66,11.19-8.1,16.28-13.28c6.19-6.28,25.01-25.4,13.81-36.93    c-9.02-9.28-32.47-3.32-49.46,5.54c0.48-3.42,0.96-7.14,1.34-10.94c2.28-22.58,0.2-33.32-7.19-37.04    c-8.62-4.35-16.8,4.68-19.49,7.65c-5.82,6.43-10.36,11.49-13.89,15.49c-0.29-3.51-0.7-7.28-1.28-11.11    c-3.24-21.26-10.3-34.05-21-38.02c-3.44-1.26-13.12-1.16-16.17-0.12c-10.86,3.75-18.02,16.51-21.3,37.93    c-0.6,3.9-1.02,7.74-1.31,11.31c-3.54-4-8.07-9.05-13.89-15.48c-2.69-2.97-10.86-12-19.49-7.65c-7.39,3.72-9.47,14.46-7.19,37.04    c0.38,3.8,0.86,7.52,1.34,10.94c-16.99-8.86-40.44-14.82-49.46-5.54c-11.2,11.53,7.62,30.65,13.81,36.93    c3.82,3.88,7.85,7.34,12.04,10.38c-33.85,21.66-51,58.89-51,110.86c0,9.44,0.58,18.87,1.7,28.1c-6.43,8.54-13.23,21.48-9.37,40.05    c4.55,21.95,15.55,43.59,34.62,68.09c1.84,2.36,3.74,4.69,5.66,6.92c2.44,2.85,6.67,3.24,9.59,0.97c0.09-0.08,0.19-0.14,0.28-0.22    c0.04-0.03,0.07-0.06,0.11-0.1c0.13-0.11,0.24-0.23,0.36-0.35c2.49-2.56,2.66-6.65,0.28-9.42c-1.77-2.07-3.53-4.22-5.23-6.4    c-17.71-22.75-27.87-42.55-31.96-62.33c-3-14.41,2.92-24.03,8.41-30.8c2.15-2.66,4.42-5.07,6.61-7.39    c2.26-2.4,4.39-4.66,6.09-6.91c1.53-2.02,2.94-4.08,4.3-6.07c2.39-3.49,4.66-6.78,7.29-9.57c3.97-4.19,8.47-6.5,12.34-6.37    c7.84,0.28,13.52,10.02,15.06,12.99c1.26,2.42,2.39,4.96,3.58,7.65c2.8,6.31,5.69,12.84,10.64,18.49    c8.34,9.54,23.97,14.5,34.66,5.87c5.93-4.79,8-11.95,9.66-17.7c0.18-0.63,0.36-1.25,0.54-1.87c1.54-5.14,3.67-8.43,5.84-9.03    c3.36-0.91,7.98,4.12,10.82,9.57l0.52,0.99c4.01,7.69,9.49,18.22,20.65,20.3c10.78,1.98,20.01-5.36,25.05-12.87    c2.04-3.02,3.63-6.15,5.17-9.17c1.73-3.39,3.37-6.59,5.43-9.24c2.74-3.51,7.49-6.35,10.7-5.02c2.43,1.02,4.46,4.61,5.58,9.86    c0.26,1.24,0.48,2.53,0.72,3.88c0.91,5.12,1.94,10.93,5.28,16.13c3.08,4.8,8.42,8.31,13.94,9.16c4.55,0.71,8.88-0.43,12.19-3.19    c4.22-3.51,5.52-8.32,6.56-12.18c0.56-2.05,1.19-4.37,1.98-5.05c0.75-0.63,3.6-0.06,5.44,1.78c2.08,2.09,3.59,5.21,5.2,8.51    c0.63,1.32,1.29,2.68,2.03,4.07c1.14,2.1,2.4,4.03,3.73,5.69c0.01,0.01,0.01,0.01,0.02,0.02v0.01c0.01,0,0.01,0,0.01,0.01    c1.17,1.47,2.41,2.78,3.66,3.86c1.22,1.12,8.25,11.13,3.81,22.53c-8.55,21.85-18.03,39.31-28.99,53.39    c-28.04,36-65.79,55.83-106.28,55.83c-22.03,0-43.1-5.74-62.64-17.07c-3.34-1.93-7.63-0.8-9.57,2.55    c-0.18,0.31-0.32,0.62-0.44,0.94c-0.06,0.16-0.13,0.32-0.18,0.48c-0.05,0.17-0.08,0.35-0.12,0.52c-0.67,2.91,0.57,6.05,3.29,7.63    c21.7,12.57,45.14,18.95,69.66,18.95c44.9,0,86.57-21.74,117.33-61.23c11.8-15.16,21.93-33.77,30.98-56.89    C412.29,332.88,403.25,317.04,397.94,312.3z M161.81,139.97c-10.32-10.49-12.6-15.71-13.1-17.55c6.33-1.85,31.8,4.91,43.59,15.87    c2.22,2.07,5.53,2.46,8.18,0.98s4.05-4.51,3.45-7.49c-3.87-19.32-5.55-39.33-4.18-47.01c0.72,0.62,1.61,1.49,2.71,2.7    c20.09,22.19,23.89,27.12,24.52,27.99c1.44,2.58,4.38,4.02,7.37,3.47c3.39-0.62,5.82-3.6,5.74-7.04    c-0.52-23.96,4.4-50.61,13.53-54.24c1.53-0.21,5.8-0.2,7.32,0.03c9.1,3.9,13.99,30.47,13.47,54.22c-0.08,3.43,2.35,6.42,5.74,7.04    c2.99,0.55,5.93-0.9,7.37-3.48c0.63-0.87,4.43-5.8,24.52-27.99c1.1-1.21,1.99-2.08,2.71-2.7c1.37,7.68-0.31,27.69-4.18,47.01    c-0.6,2.98,0.8,6.01,3.45,7.49s5.96,1.08,8.18-0.98c11.79-10.97,37.26-17.71,43.59-15.87c-0.5,1.84-2.78,7.06-13.1,17.55    c-2.91,2.95-5.94,5.62-9.08,7.99c-3.13,2.36-6.37,4.43-9.68,6.18c-0.07,0.03-0.14,0.07-0.22,0.11    c-14.22,7.42-30.09,9.28-47.18,5.5c-9.73-2.14-19.59-3.18-29.23-3.14c-2.43-0.01-4.87,0.04-7.32,0.17    c-7.34,0.37-14.71,1.36-22.02,2.97c-17.08,3.78-32.95,1.93-47.17-5.5c-0.08-0.04-0.15-0.08-0.22-0.11    C173.94,150.65,167.63,145.88,161.81,139.97z"/>
<path class="st6" d="M227.9,193.85c0,0.46-0.04,0.92-0.14,1.37c-0.09,0.45-0.22,0.89-0.39,1.31c-0.18,0.42-0.4,0.83-0.65,1.21    s-0.55,0.74-0.87,1.06c-0.32,0.32-0.68,0.62-1.06,0.87c-0.38,0.25-0.79,0.47-1.21,0.65c-0.42,0.17-0.86,0.31-1.31,0.39    c-0.45,0.1-0.91,0.14-1.37,0.14c-1.84,0-3.64-0.75-4.95-2.05c-0.32-0.32-0.61-0.68-0.87-1.06c-0.25-0.38-0.47-0.79-0.64-1.21    c-0.18-0.42-0.31-0.86-0.4-1.31c-0.09-0.45-0.14-0.91-0.14-1.37c0-0.45,0.05-0.91,0.14-1.37c0.09-0.44,0.22-0.88,0.4-1.31    c0.17-0.42,0.39-0.82,0.64-1.2c0.26-0.39,0.55-0.75,0.87-1.07c1.31-1.3,3.11-2.05,4.95-2.05c1.84,0,3.65,0.75,4.95,2.05    c0.33,0.32,0.62,0.68,0.87,1.07c0.25,0.38,0.47,0.78,0.65,1.2c0.17,0.43,0.3,0.87,0.39,1.31    C227.86,192.94,227.9,193.4,227.9,193.85z"/>
<path class="st6" d="M283.39,216.49c0,0.46-0.04,0.92-0.13,1.37c-0.09,0.44-0.23,0.88-0.4,1.31c-0.18,0.42-0.4,0.83-0.65,1.21    s-0.55,0.74-0.87,1.06c-0.32,0.32-0.68,0.62-1.06,0.87c-0.38,0.25-0.79,0.47-1.21,0.64c-0.42,0.18-0.86,0.31-1.31,0.4    s-0.91,0.14-1.37,0.14c-0.45,0-0.91-0.05-1.37-0.14c-0.44-0.09-0.88-0.22-1.3-0.4c-0.43-0.17-0.83-0.39-1.21-0.64    c-0.39-0.25-0.75-0.55-1.07-0.87c-0.32-0.32-0.61-0.68-0.87-1.06c-0.25-0.38-0.47-0.79-0.64-1.21c-0.18-0.43-0.31-0.87-0.4-1.31    c-0.09-0.45-0.14-0.91-0.14-1.37s0.05-0.92,0.14-1.37c0.09-0.44,0.22-0.88,0.4-1.31c0.17-0.42,0.39-0.83,0.64-1.21    c0.26-0.38,0.55-0.74,0.87-1.06c0.32-0.32,0.68-0.61,1.07-0.87c0.38-0.25,0.78-0.47,1.21-0.64c0.42-0.18,0.86-0.31,1.3-0.4    c0.91-0.18,1.84-0.18,2.74,0c0.45,0.09,0.89,0.22,1.31,0.4c0.42,0.17,0.83,0.39,1.21,0.64c0.38,0.26,0.74,0.55,1.06,0.87    c0.33,0.32,0.62,0.68,0.87,1.06s0.47,0.79,0.65,1.21c0.17,0.43,0.31,0.87,0.4,1.31C283.35,215.57,283.39,216.03,283.39,216.49z"/>
<path class="st6" d="M263.92,245.17c0,1.84-0.74,3.65-2.05,4.95c-0.32,0.32-0.68,0.62-1.06,0.87c-0.38,0.25-0.79,0.47-1.21,0.64    c-0.42,0.18-0.86,0.31-1.31,0.4c-0.45,0.09-0.91,0.14-1.36,0.14c-0.46,0-0.92-0.05-1.37-0.14c-0.45-0.09-0.89-0.22-1.31-0.4    c-0.43-0.17-0.83-0.39-1.21-0.64c-0.39-0.25-0.74-0.55-1.06-0.87c-1.31-1.3-2.06-3.11-2.06-4.95c0-1.84,0.75-3.65,2.06-4.95    c0.32-0.32,0.67-0.61,1.06-0.87c0.38-0.25,0.78-0.47,1.21-0.64c0.42-0.18,0.86-0.31,1.31-0.4c0.9-0.18,1.83-0.18,2.73,0    c0.45,0.09,0.89,0.22,1.31,0.4c0.42,0.17,0.83,0.39,1.21,0.64c0.38,0.26,0.74,0.55,1.06,0.87c0.33,0.32,0.62,0.68,0.87,1.06    c0.26,0.38,0.47,0.79,0.65,1.21c0.17,0.43,0.31,0.87,0.4,1.31C263.88,244.25,263.92,244.71,263.92,245.17z"/>
<path class="st6" d="M184.5,191.47c0,1.84-0.75,3.64-2.05,4.95c-0.32,0.32-0.68,0.61-1.07,0.87c-0.37,0.25-0.78,0.47-1.2,0.64    c-0.43,0.18-0.87,0.31-1.31,0.4c-0.45,0.09-0.91,0.14-1.37,0.14s-0.92-0.05-1.37-0.14c-0.44-0.09-0.89-0.22-1.31-0.4    c-0.42-0.17-0.83-0.39-1.21-0.64c-0.38-0.26-0.74-0.55-1.06-0.87c-1.3-1.31-2.05-3.11-2.05-4.95c0-1.84,0.75-3.65,2.05-4.95    c0.32-0.32,0.68-0.62,1.06-0.87c0.38-0.25,0.79-0.47,1.21-0.64c0.42-0.18,0.86-0.31,1.31-0.4c0.9-0.19,1.83-0.19,2.74,0    c0.44,0.09,0.88,0.22,1.31,0.4c0.42,0.17,0.83,0.39,1.2,0.64c0.39,0.25,0.75,0.55,1.07,0.87    C183.75,187.82,184.5,189.63,184.5,191.47z"/>
<path class="st6" d="M371.82,245.17c0,0.46-0.05,0.92-0.14,1.37c-0.09,0.45-0.22,0.89-0.4,1.31c-0.17,0.42-0.39,0.83-0.64,1.21    c-0.26,0.38-0.55,0.74-0.87,1.06s-0.68,0.62-1.07,0.87c-0.38,0.25-0.78,0.47-1.2,0.64c-0.43,0.18-0.87,0.31-1.31,0.4    c-0.46,0.09-0.92,0.14-1.37,0.14c-0.46,0-0.92-0.05-1.37-0.14c-0.45-0.09-0.89-0.22-1.31-0.4c-0.42-0.17-0.83-0.39-1.21-0.64    c-0.38-0.25-0.74-0.55-1.06-0.87c-0.33-0.32-0.62-0.68-0.87-1.06c-0.26-0.38-0.47-0.79-0.65-1.21c-0.17-0.42-0.31-0.86-0.4-1.31    c-0.09-0.45-0.13-0.91-0.13-1.37c0-1.84,0.74-3.65,2.05-4.95c0.32-0.32,0.68-0.61,1.06-0.87c0.38-0.25,0.79-0.47,1.21-0.64    c0.42-0.18,0.86-0.31,1.31-0.4c0.9-0.18,1.83-0.18,2.74,0c0.44,0.09,0.88,0.22,1.31,0.4c0.42,0.17,0.83,0.39,1.2,0.64    c0.39,0.26,0.75,0.55,1.07,0.87C371.07,241.52,371.82,243.33,371.82,245.17z"/>
<path class="st6" d="M325.61,191.47c0,0.45-0.05,0.91-0.14,1.37c-0.09,0.44-0.23,0.88-0.4,1.31c-0.18,0.42-0.39,0.82-0.64,1.2    c-0.26,0.39-0.55,0.75-0.87,1.07c-0.33,0.32-0.69,0.61-1.07,0.87c-0.38,0.25-0.79,0.47-1.21,0.64c-0.42,0.18-0.86,0.31-1.31,0.4    s-0.91,0.14-1.36,0.14c-1.85,0-3.65-0.75-4.95-2.05c-0.33-0.32-0.62-0.68-0.87-1.07c-0.26-0.38-0.47-0.78-0.65-1.2    c-0.17-0.43-0.31-0.87-0.4-1.31c-0.09-0.46-0.14-0.92-0.14-1.37c0-1.84,0.75-3.65,2.06-4.95c0.32-0.32,0.68-0.62,1.06-0.87    c0.38-0.25,0.79-0.47,1.21-0.65c0.42-0.17,0.86-0.31,1.31-0.4c0.9-0.18,1.83-0.18,2.73,0c0.45,0.09,0.89,0.23,1.31,0.4    c0.42,0.18,0.83,0.4,1.21,0.65s0.74,0.55,1.07,0.87C324.86,187.82,325.61,189.63,325.61,191.47z"/>
<path class="st6" d="M356.75,212.4c0,1.85-0.74,3.65-2.05,4.95c-0.32,0.33-0.68,0.62-1.06,0.87c-0.38,0.26-0.78,0.47-1.21,0.65    c-0.42,0.17-0.86,0.31-1.31,0.4c-0.45,0.09-0.91,0.13-1.37,0.13c-1.84,0-3.64-0.74-4.94-2.05c-1.31-1.3-2.05-3.1-2.05-4.95    c0-0.45,0.04-0.91,0.13-1.36c0.09-0.45,0.23-0.89,0.4-1.31c0.18-0.43,0.39-0.83,0.64-1.21c0.26-0.39,0.55-0.74,0.88-1.07    c1.62-1.62,4.04-2.37,6.31-1.91c0.45,0.09,0.89,0.23,1.31,0.4c0.42,0.18,0.83,0.39,1.21,0.64c0.38,0.26,0.74,0.55,1.06,0.87    C356.01,208.76,356.75,210.56,356.75,212.4z"/>
<path class="st6" d="M173.44,222.28c0,1.84-0.75,3.64-2.05,4.95c-0.33,0.32-0.69,0.61-1.07,0.87c-0.38,0.25-0.78,0.47-1.21,0.64    c-0.42,0.18-0.86,0.31-1.31,0.4s-0.91,0.14-1.36,0.14c-0.46,0-0.92-0.05-1.37-0.14s-0.89-0.22-1.31-0.4    c-0.42-0.17-0.83-0.39-1.21-0.64c-0.38-0.26-0.74-0.55-1.06-0.87c-0.33-0.33-0.62-0.68-0.87-1.07c-0.26-0.38-0.47-0.78-0.65-1.2    c-0.17-0.43-0.31-0.87-0.4-1.31c-0.09-0.46-0.13-0.92-0.13-1.37c0-0.46,0.04-0.92,0.13-1.37c0.09-0.45,0.23-0.89,0.4-1.31    c0.18-0.42,0.39-0.83,0.65-1.21c0.25-0.38,0.54-0.74,0.87-1.06c0.32-0.33,0.68-0.62,1.06-0.87c0.38-0.25,0.79-0.47,1.21-0.65    c0.42-0.17,0.86-0.31,1.31-0.4c0.9-0.18,1.83-0.18,2.73,0c0.45,0.09,0.89,0.23,1.31,0.4c0.43,0.18,0.83,0.4,1.21,0.65    c0.38,0.25,0.74,0.54,1.07,0.87C172.69,218.63,173.44,220.44,173.44,222.28z"/>
<path class="st6" d="M218.2,223.98c0,1.84-0.75,3.65-2.05,4.95c-1.3,1.3-3.11,2.05-4.95,2.05c-0.45,0-0.91-0.05-1.37-0.14    c-0.44-0.09-0.88-0.22-1.31-0.4c-0.42-0.17-0.83-0.39-1.21-0.64c-0.38-0.26-0.74-0.55-1.06-0.87c-0.32-0.32-0.62-0.68-0.87-1.06    s-0.47-0.79-0.64-1.21c-0.18-0.43-0.31-0.87-0.4-1.31c-0.09-0.45-0.14-0.91-0.14-1.37s0.05-0.92,0.14-1.37    c0.09-0.45,0.22-0.89,0.4-1.31c0.17-0.42,0.39-0.83,0.64-1.21s0.55-0.74,0.87-1.06c0.32-0.32,0.68-0.62,1.06-0.87    c0.38-0.25,0.79-0.47,1.21-0.64c0.43-0.18,0.87-0.31,1.31-0.4c2.28-0.46,4.7,0.28,6.32,1.91    C217.45,220.33,218.2,222.14,218.2,223.98z"/>
<path class="st6" d="M215.48,264.49c0,0.45-0.05,0.91-0.14,1.37c-0.09,0.44-0.22,0.88-0.4,1.31c-0.17,0.42-0.39,0.82-0.64,1.2    c-0.26,0.39-0.55,0.75-0.87,1.07c-0.33,0.32-0.68,0.61-1.07,0.87c-0.38,0.25-0.78,0.47-1.21,0.64c-0.42,0.18-0.86,0.31-1.3,0.4    c-0.46,0.09-0.92,0.14-1.37,0.14c-0.46,0-0.92-0.05-1.37-0.14c-0.45-0.09-0.89-0.22-1.31-0.4c-0.42-0.17-0.83-0.39-1.21-0.64    c-0.38-0.26-0.74-0.55-1.06-0.87c-0.33-0.32-0.62-0.68-0.87-1.07c-0.26-0.38-0.47-0.78-0.65-1.2c-0.17-0.43-0.31-0.87-0.4-1.31    c-0.09-0.46-0.13-0.92-0.13-1.37c0-0.46,0.04-0.92,0.13-1.37c0.09-0.45,0.23-0.89,0.4-1.31c0.18-0.42,0.39-0.83,0.65-1.21    c0.25-0.38,0.54-0.74,0.87-1.06c0.32-0.32,0.68-0.62,1.06-0.87c0.38-0.25,0.79-0.47,1.21-0.65c0.42-0.17,0.86-0.3,1.31-0.39    c0.9-0.19,1.83-0.19,2.74,0c0.44,0.09,0.88,0.22,1.3,0.39c0.43,0.18,0.83,0.4,1.21,0.65c0.39,0.25,0.75,0.55,1.07,0.87    c0.32,0.32,0.61,0.68,0.87,1.06c0.25,0.38,0.47,0.79,0.64,1.21c0.18,0.42,0.31,0.86,0.4,1.31    C215.43,263.57,215.48,264.03,215.48,264.49z"/>
<path class="st6" d="M321.35,242.02c0,1.84-0.75,3.65-2.05,4.95c-0.32,0.32-0.68,0.62-1.06,0.87s-0.79,0.47-1.21,0.64    c-0.42,0.18-0.86,0.31-1.31,0.4s-0.91,0.14-1.37,0.14s-0.92-0.05-1.37-0.14c-0.44-0.09-0.88-0.22-1.31-0.4    c-0.42-0.17-0.83-0.39-1.21-0.64c-0.38-0.25-0.74-0.55-1.06-0.87c-1.3-1.3-2.05-3.11-2.05-4.95c0-1.84,0.75-3.64,2.05-4.95    c0.32-0.32,0.68-0.61,1.06-0.87c0.38-0.25,0.79-0.47,1.21-0.64c0.43-0.18,0.87-0.31,1.31-0.4c0.91-0.18,1.84-0.18,2.74,0    c0.44,0.09,0.89,0.22,1.31,0.4c0.42,0.17,0.83,0.39,1.21,0.64c0.38,0.26,0.74,0.55,1.06,0.87    C320.6,238.38,321.35,240.18,321.35,242.02z"/>
</g>
</g>
</svg>